<svg xmlns="http://www.w3.org/2000/svg" width="1792" height="1792"><path fill="#adadad" d="M192 1664h288v-288H192zm352 0h320v-288H544zm-352-352h288V992H192zm352 0h320V992H544zM192 928h288V640H192zm736 736h320v-288H928zM544 928h320V640H544zm768 736h288v-288h-288zm-384-352h320V992H928zM576 448V160q0-13-9.5-22.5T544 128h-64q-13 0-22.5 9.5T448 160v288q0 13 9.5 22.5T480 480h64q13 0 22.5-9.5T576 448m736 864h288V992h-288zM928 928h320V640H928zm384 0h288V640h-288zm32-480V160q0-13-9.5-22.5T1312 128h-64q-13 0-22.5 9.5T1216 160v288q0 13 9.5 22.5t22.5 9.5h64q13 0 22.5-9.5t9.5-22.5m384-64v1280q0 52-38 90t-90 38H192q-52 0-90-38t-38-90V384q0-52 38-90t90-38h128v-96q0-66 47-113T480 0h64q66 0 113 47t47 113v96h384v-96q0-66 47-113t113-47h64q66 0 113 47t47 113v96h128q52 0 90 38t38 90"/></svg>