<svg fill="#ee0c0d" height="74" width="74" xmlns="http://www.w3.org/2000/svg" viewBox="0 0 512 512"><path d="M385.766 403.567a8.523 8.523 0 00-12.066 0l-19.567 19.567v-98.867a8.536 8.536 0 00-8.533-8.533 8.536 8.536 0 00-8.533 8.533v98.867L317.5 403.567a8.523 8.523 0 00-12.066 0 8.525 8.525 0 000 12.066l34.133 34.133a8.51 8.51 0 006.033 2.5 8.509 8.509 0 006.033-2.5l34.133-34.133a8.523 8.523 0 000-12.066z"/><path d="M345.6 256c-70.579 0-128 57.421-128 128s57.421 128 128 128 128-57.421 128-128-57.421-128-128-128zm0 238.933c-61.167 0-110.933-49.766-110.933-110.933S284.433 273.067 345.6 273.067 456.533 322.833 456.533 384 406.767 494.933 345.6 494.933zm-119.467-25.6H55.467V409.6a8.536 8.536 0 00-8.533-8.533 8.536 8.536 0 00-8.533 8.533v68.267a8.536 8.536 0 008.533 8.533h179.2c4.71 0 8.533-3.823 8.533-8.533s-3.823-8.534-8.534-8.534zm-179.2-102.4c-4.71 0-8.533 3.823-8.533 8.533S42.223 384 46.933 384h.085c4.71 0 8.491-3.823 8.491-8.533s-3.865-8.534-8.576-8.534z"/><path d="M394.3 139.034L257.766 2.5a8.513 8.513 0 00-6.033-2.5h-204.8A8.536 8.536 0 0038.4 8.533v332.8a8.536 8.536 0 008.533 8.533 8.536 8.536 0 008.533-8.533V17.067H243.2v128a8.536 8.536 0 008.533 8.533h128v76.8c0 4.71 3.823 8.533 8.533 8.533s8.533-3.823 8.533-8.533v-85.333a8.504 8.504 0 00-2.499-6.033zm-134.033-2.501v-107.4l107.401 107.401H260.267z"/></svg>