<svg width="28" height="28" viewBox="0 0 28 28" fill="none" xmlns="http://www.w3.org/2000/svg">
<path d="M13.9998 0.666016C6.63984 0.666016 0.666504 6.63935 0.666504 13.9993C0.666504 21.3593 6.63984 27.3327 13.9998 27.3327C21.3598 27.3327 27.3332 21.3593 27.3332 13.9993C27.3332 6.63935 21.3598 0.666016 13.9998 0.666016ZM10.3865 19.7193L5.59984 14.9327C5.07984 14.4127 5.07984 13.5727 5.59984 13.0527C6.11984 12.5327 6.95984 12.5327 7.47984 13.0527L11.3332 16.8927L20.5065 7.71935C21.0265 7.19935 21.8665 7.19935 22.3865 7.71935C22.9065 8.23935 22.9065 9.07935 22.3865 9.59935L12.2665 19.7193C11.7598 20.2393 10.9065 20.2393 10.3865 19.7193Z" fill="#27BE48"/>
</svg>
